<svg width="207" height="172" viewBox="0 0 207 172" fill="none" xmlns="http://www.w3.org/2000/svg">
<path d="M206.13 30.5165C206.13 24.1565 200.974 19.0008 194.614 19.0008H84.0642C80.8843 19.0008 78.3064 16.423 78.3064 13.243V11.5157C78.3064 5.15574 73.1507 0 66.7908 0H38.0016H11.5156C5.15572 0 -1.52588e-05 5.15573 -1.52588e-05 11.5157V146.825C-1.52588e-05 153.184 5.15572 158.34 11.5156 158.34H194.614C200.974 158.34 206.13 153.184 206.13 146.825V30.5165Z" fill="#CE9E61"/>
<path d="M206.13 48.3658C206.13 42.0058 200.974 36.8501 194.614 36.8501H78.3064H38.0016H11.5156C5.15572 36.8501 -1.52588e-05 42.0058 -1.52588e-05 48.3657V160.068C-1.52588e-05 166.427 5.15572 171.583 11.5156 171.583H194.614C200.974 171.583 206.13 166.427 206.13 160.068V48.3658Z" fill="#F0BB78"/>
</svg>
