<svg width="453" height="99" viewBox="0 0 453 99" fill="none" xmlns="http://www.w3.org/2000/svg">
<path d="M4.62002 95.7L2.35811e-05 71.544L0.924023 31.02L7.26002 4.07696e-05H38.28L34.584 32.736L49.368 36.828L54.12 4.07696e-05L81.708 3.69604L76.56 60.456L78.276 93.06L50.688 93.984L41.052 57.024L30.756 55.176L31.152 93.06L4.62002 95.7ZM82.0947 75.9L85.1307 49.896L104.139 25.872L129.747 22.44L143.871 48.708L130.011 73.92L143.871 69.96V81.84L130.011 94.248L107.043 98.736L85.6587 86.196L82.0947 75.9ZM148.101 50.82L157.209 30.36L188.229 23.1H214.893L213.573 43.296L214.893 69.696L213.573 94.38H188.229L187.437 79.332L165.789 95.304L157.341 90.42L146.913 61.908L148.101 50.82ZM222.207 68.112L223.395 22.968H246.363L248.475 28.644L274.347 21.252L280.947 38.016L274.479 58.344L272.895 61.908L250.851 60.324L252.831 94.248H224.979L222.207 68.112ZM316.333 54.384L316.861 21.912H348.013L351.577 62.436L352.633 50.292L352.369 21.912H382.597L381.937 45.936L378.901 69.564L367.549 93.192L320.689 78.936L316.333 54.384ZM384.861 78.012L411.261 66.528L387.765 45.012L391.329 33.528L436.605 23.364L451.521 37.488L452.049 45.012L434.889 51.744L447.033 73.92L448.089 86.064L426.177 97.284L389.613 95.7L384.861 78.012Z" fill="black"/>
</svg>
