<svg width="657" height="189" viewBox="0 0 657 189" fill="none" xmlns="http://www.w3.org/2000/svg">
<path d="M-2.9056e-05 104.813L23.2086 36.6845L46.1676 13.9751L137.505 16.9697L174.439 80.6062L153.227 160.963L84.599 186.917L20.4635 166.703L-2.9056e-05 104.813ZM59.394 110.054L114.296 108.556L121.533 83.1017L59.6436 80.8557L55.1516 104.064L59.394 110.054ZM180.407 69.6258L185.148 5.73978H240.3L236.556 74.8664L273.491 89.5902L276.485 71.3727L271.744 5.73978H328.642L328.393 75.6151L310.674 155.972L283.722 184.421L210.104 176.435L185.647 131.515L180.407 69.6258ZM385.853 188.414L384.106 132.014L387.599 76.6133L352.412 83.6008L337.688 22.2104L356.155 9.73264L450.487 4.492L497.903 20.4635L486.423 81.3549L443.25 83.3513L439.008 115.045L441.503 184.671L385.853 188.414ZM500.659 160.214L520.374 149.982L547.326 155.722L546.328 176.685L539.091 183.173L522.371 186.917L505.401 183.173L500.659 160.214ZM495.169 1.68982e-05H549.323L542.335 107.558L533.85 138.004L509.144 140.25L503.155 126.275L495.169 1.68982e-05ZM554.031 160.214L573.746 149.982L600.698 155.722L599.699 176.685L592.462 183.173L575.742 186.917L558.772 183.173L554.031 160.214ZM548.541 1.68982e-05H602.694L595.707 107.558L587.222 138.004L562.516 140.25L556.526 126.275L548.541 1.68982e-05ZM607.402 160.214L627.117 149.982L654.069 155.722L653.071 176.685L645.834 183.173L629.114 186.917L612.144 183.173L607.402 160.214ZM601.912 1.68982e-05H656.066L649.078 107.558L640.593 138.004L615.887 140.25L609.898 126.275L601.912 1.68982e-05Z" fill="black"/>
</svg>
